Coordinates
version=1
nRows=21
nColumns=33
inDegrees=yes

Units are S.I. units (second, meters, Newtons, ...)
Angles are in degrees.

endheader
time	ground_thorax_rot_x	ground_thorax_rot_y	ground_thorax_rot_z	ground_thorax_tx	ground_thorax_ty	ground_thorax_tz	clav_prot_r	clav_elev_r	scapula_abduction_r	scapula_elevation_r	scapula_upward_rot_r	scapula_winging_r	shoulder_elv_r	plane_of_elev_r	axial_rot_r	elbow_flexion_r	pro_sup_r	wrist_flex_r	wrist_dev_r	clav_prot_l	clav_elev_l	scapula_abduction_l	scapula_elevation_l	scapula_upward_rot_l	scapula_winging_l	shoulder_elv_l	plane_of_elev_l	axial_rot_l	elbow_flexion_l	pro_sup_l	wrist_flex_l	wrist_dev_l
      9.99000000	    -40.01066320	     -3.49175252	      4.73540423	    -51.77429281	    812.82170369	      7.03092076	     -5.35872569	    -45.00000000	     45.00000000	    -45.00000000	     27.19148851	  -2988.96695353	   -658.54079143	     20.28648434	   -179.99999979	   2164.46880615	    -87.72655119	     17.68005511	     10.28485243	     17.45690744	     42.51969654	    -45.00000000	    -43.60652782	    -30.77696449	   2957.10874309	  -3699.33799296	    135.35536225	   -179.99999979	    368.24538671	     31.59092773	     10.28419893	    -21.30574909
     10.00000000	    -39.76585940	     -3.84296933	      4.91721437	    -49.47449668	    810.02096149	      7.39077196	     -4.94071712	    -45.00000000	     45.00000000	    -45.00000000	     25.99848322	  -2988.49356919	   -658.82354725	     20.12881468	   -179.99999979	   2164.39329820	    -87.26705461	     17.59676539	     10.08599534	     17.74970359	     42.30755574	    -45.00000000	    -42.99790568	    -30.84383408	   2957.00857809	  -3699.47397174	    135.33231343	   -179.99999979	    368.05750898	     32.62773995	      9.94858121	    -20.70440595
     10.01000000	    -39.51812346	     -4.20178880	      5.11778093	    -47.52281330	    807.51209502	      7.69509806	     -4.57515860	    -45.00000000	     45.00000000	    -45.00000000	     24.85567044	  -2988.11296720	   -659.06168928	     20.07684125	   -179.99999979	   2164.34309451	    -86.60254282	     17.53890222	      9.89106833	     17.46401980	     41.91570571	    -45.00000000	    -42.39280578	    -30.92272395	   2957.05504969	  -3699.57568517	    135.24583695	   -179.99999979	    367.92705278	     33.93797740	      9.72742868	    -20.56769717
     10.02000000	    -39.29425289	     -4.38459101	      5.16058103	    -45.94548665	    805.29906417	      7.92801475	     -4.40139931	    -45.00000000	     45.00000000	    -45.00000000	     24.01495955	  -2987.82439654	   -659.27733527	     20.03539921	   -179.99999979	   2164.25987755	    -85.93240329	     17.47163618	      9.73387144	     17.15697788	     41.33323384	    -45.00000000	    -41.77747600	    -30.80788617	   2957.04220008	  -3699.54234863	    135.18663632	   -179.99999979	    367.76165999	     35.24085319	      9.66699638	    -20.51714675
     10.03000000	    -39.12431086	     -4.50734504	      5.08516481	    -44.76858081	    803.37762028	      8.07740693	     -4.40858997	    -45.00000000	     45.00000000	    -45.00000000	     23.69417348	  -2987.65406946	   -659.39650603	     19.92402311	   -179.99999979	   2164.26433936	    -85.27305613	     17.29454806	      9.65292304	     17.07718187	     41.11839958	    -45.00000000	    -41.29645263	    -30.40533149	   2956.99992196	  -3699.70771221	    135.34026204	   -179.99999979	    367.64640319	     36.43832238	      9.56553720	    -20.45887859
     10.04000000	    -38.93090740	     -4.68610603	      5.10688285	    -44.01234442	    801.74232591	      8.14062080	     -4.29100296	    -45.00000000	     45.00000000	    -45.00000000	     23.03336932	  -2987.50513236	   -659.52265331	     19.90829615	   -179.99999979	   2164.13713592	    -84.83301391	     17.20632595	      9.59117546	     16.90965498	     40.35703636	    -45.00000000	    -40.78503510	    -30.25117157	   2957.06465217	  -3699.71901843	    135.29060005	   -179.99999979	    367.39901817	     37.18550601	      9.65802067	    -20.42540327
     10.05000000	    -38.80677059	     -4.86630423	      5.08485567	    -43.68667178	    800.36426943	      8.11934360	     -4.25146365	    -45.00000000	     45.00000000	    -45.00000000	     22.75769805	  -2987.45709149	   -659.55236394	     19.85417026	   -179.99999979	   2164.17723732	    -84.59498105	     17.02913805	      9.62539599	     16.87918628	     40.23397011	    -45.00000000	    -40.36697841	    -29.86901697	   2957.21082243	  -3699.89745577	    135.40873681	   -179.99999979	    367.22051332	     37.56049593	      9.67985067	    -20.33449415
     10.06000000	    -38.73854593	     -5.11755494	      5.07857332	    -43.78761416	    799.21314931	      8.02659436	     -4.25009970	    -45.00000000	     45.00000000	    -45.00000000	     22.53981088	  -2987.49539205	   -659.59152443	     19.78999531	   -179.99999979	   2164.22184980	    -84.59233017	     16.84171575	      9.70845710	     16.79440762	     39.84636418	    -45.00000000	    -40.06296927	    -29.51198857	   2957.49648847	  -3700.16685932	    135.45246131	   -179.99999979	    366.94001918	     37.53786974	      9.81239665	    -20.22918300
     10.07000000	    -38.64046838	     -5.43830944	      5.17297914	    -44.29738492	    798.24627395	      7.88384413	     -4.24745340	    -45.00000000	     45.00000000	    -45.00000000	     22.45061492	  -2987.61668597	   -659.44535520	     19.78875809	   -179.99999979	   2164.46597907	    -84.78748155	     16.70634942	      9.88411790	     16.73300823	     39.80099454	    -45.00000000	    -39.76039350	    -29.18995290	   2957.91066881	  -3700.60304672	    135.54845599	   -179.99999979	    366.76150750	     37.13146997	      9.86521474	    -20.07861620
     10.08000000	    -38.60145148	     -5.41606195	      4.95039406	    -45.18565292	    797.42944508	      7.71761970	     -4.23069939	    -45.00000000	     45.00000000	    -45.00000000	     22.33902369	  -2987.71502694	   -659.40313252	     19.80965469	   -179.99999979	   2164.47954395	    -85.21240361	     16.66662491	      9.97240112	     16.66424253	     39.96348502	    -45.00000000	    -39.56719711	    -29.03451695	   2957.92574219	  -3700.53016940	    135.60457508	   -179.99999979	    366.55863817	     36.40349596	     10.05336091	    -20.04633646
     10.09000000	    -38.64142654	     -5.52546375	      4.82080490	    -46.40888432	    796.72727785	      7.55465460	     -4.19089528	    -45.00000000	     45.00000000	    -45.00000000	     22.17153265	  -2987.79756827	   -659.37402479	     19.70828190	   -179.99999979	   2164.50622076	    -85.92282334	     16.54678442	     10.07210561	     16.68115285	     40.02689677	    -45.00000000	    -39.62060124	    -29.01926767	   2957.96802092	  -3700.70058847	    135.62199604	   -179.94673790	    366.26028413	     35.27507822	     10.28596788	    -19.96211904
     10.10000000	    -38.67710594	     -5.68613608	      4.72814263	    -47.92176794	    796.10614969	      7.41652312	     -4.13229168	    -45.00000000	     45.00000000	    -45.00000000	     21.96827920	  -2987.95233156	   -659.26414932	     19.66306609	   -179.99999979	   2164.56058171	    -86.83887862	     16.43850025	     10.20688275	     16.70117146	     40.00972148	    -45.00000000	    -39.65078076	    -29.16177263	   2958.05651728	  -3700.77766768	    135.60309234	   -179.56370376	    365.97739921	     33.92407510	     10.54624186	    -19.89834702
     10.11000000	    -38.68888465	     -5.92707927	      4.70855310	    -49.67843333	    795.54074924	      7.31754063	     -4.08130039	    -45.00000000	     45.00000000	    -45.00000000	     21.85394361	  -2988.19010018	   -659.06076960	     19.69838009	   -179.99999979	   2164.77449809	    -87.79761543	     16.35504664	     10.42373988	     16.74456479	     40.01350770	    -45.00000000	    -39.64171300	    -29.34498335	   2958.24356553	  -3700.92555242	    135.51631815	   -179.19383232	    365.54621745	     32.62389852	     10.76197525	    -19.78853118
     10.12000000	    -38.75084271	     -6.07786531	      4.68306455	    -51.64103758	    795.01313653	      7.26291117	     -4.03726507	    -45.00000000	     45.00000000	    -45.00000000	     21.69473858	  -2988.43009222	   -658.83546134	     19.66873924	   -179.99999979	   2164.97589828	    -88.71742279	     16.30591374	     10.61807681	     16.77470111	     40.13902304	    -45.00000000	    -39.52532492	    -29.54082190	   2958.42468243	  -3700.80353897	    135.53692392	   -178.93607738	    365.41694387	     31.41118234	     10.86179345	    -19.77226144
     10.13000000	    -38.88502513	     -6.20255620	      4.43105175	    -53.78257952	    794.51344480	      7.24924918	     -3.91987519	    -45.00000000	     45.00000000	    -45.00000000	     21.22050652	  -2988.40875278	   -658.80667510	     19.54984734	   -179.99999979	   2164.95744305	    -89.68400882	     16.14114400	     10.69633805	     16.84577661	     40.06233159	    -45.00000000	    -39.81948761	    -29.78236776	   2958.46672381	  -3700.96623693	    135.57894833	   -179.01586697	    365.33150761	     30.28847296	     11.09621183	    -19.81644275
     10.14000000	    -38.82745664	     -6.44221834	      4.43007845	    -56.08671056	    794.03855335	      7.26606835	     -3.74353348	    -45.00000000	     45.00000000	    -45.00000000	     21.02910725	  -2988.68536822	   -658.46467325	     19.70404236	   -179.99999979	   2165.23113335	    -90.62245873	     16.18724421	     10.92350946	     16.88491830	     40.23321222	    -45.00000000	    -39.58305011	    -29.88095746	   2958.69584825	  -3700.97556282	    135.75382692	   -179.31271155	    365.22158118	     29.28086186	     11.04708268	    -19.78681008
     10.15000000	    -38.78324125	     -6.49585751	      4.10392277	    -58.55021023	    793.58954272	      7.29808700	     -3.63292237	    -45.00000000	     45.00000000	    -45.00000000	     20.41278932	  -2988.41754625	   -658.29217586	     19.59893462	   -179.99999979	   2165.13729657	    -91.58705033	     15.93000045	     10.91909512	     16.89582481	     40.31005177	    -45.00000000	    -39.70532158	    -29.86832354	   2958.58612343	  -3701.15776182	    135.97617975	   -179.99999979	    365.12218905	     28.42056100	     11.23445663	    -19.80889353
     10.16000000	    -39.00786240	     -7.16413164	      4.57315703	    -61.20524554	    793.16486793	      7.32811021	     -3.22993753	    -45.00000000	     45.00000000	    -45.00000000	     19.30703930	  -2988.47704091	   -658.07022798	     19.24963244	   -179.99999979	   2165.21021028	    -92.97652477	     15.84385349	     10.97248481	     17.14738831	     40.15850416	    -45.00000000	    -40.28590276	    -32.03998211	   2958.33876840	  -3700.83998071	    135.86389895	   -179.99391171	    365.35066665	     27.47707952	     11.17918880	    -19.78248248
     10.17000000	    -39.00617769	     -6.95584500	      4.03788493	    -64.04678429	    792.77096184	      7.33903496	     -3.12606894	    -45.00000000	     45.00000000	    -45.00000000	     18.99681568	  -2988.36047524	   -657.90238140	     19.27050968	   -179.99999979	   2165.21952362	    -93.66948777	     15.66175394	     11.01631367	     17.07413333	     40.21859257	    -45.00000000	    -40.22522299	    -31.44168745	   2958.45884235	  -3701.05440508	    136.07688576	   -179.99999979	    365.34453380	     27.07463783	     11.38835855	    -19.94686987
     10.18000000	    -39.11724159	     -7.92675885	      4.93531600	    -67.10367231	    792.40616717	      7.31574673	     -2.44850340	    -45.00000000	     45.00000000	    -45.00000000	     17.46396163	  -2988.93801044	   -657.68589025	     19.49139307	   -179.99999979	   2165.48591074	    -94.40396348	     15.72121438	     11.19693738	     17.69106164	     40.00682933	    -45.00000000	    -40.58847549	    -33.90367760	   2958.45918127	  -3700.64895365	    135.75137757	   -179.99999979	    365.34374142	     26.84425350	     10.91008807	    -19.81051837
     10.19000000	    -39.16736647	     -8.09860824	      4.81916170	    -70.38456236	    792.07044514	      7.24785676	     -2.28657904	    -45.00000000	     45.00000000	    -45.00000000	     17.07798263	  -2989.21651625	   -657.52256315	     19.57613660	   -179.99999979	   2165.54208913	    -94.63981436	     15.60279175	     11.23128388	     17.77312363	     39.96047688	    -45.00000000	    -40.74549193	    -34.48173538	   2958.49261585	  -3700.66161765	    135.78850021	   -179.99999979	    365.42815118	     26.98577839	     10.74524666	    -19.86732227
